<svg id="Layer_1" data-name="Layer 1" xmlns="http://www.w3.org/2000/svg" viewBox="0 0 108.3 108.3"><title>Artboard 2</title><path d="M19.63,18.43l-.84.8-.89.92A33.55,33.55,0,0,0,66.23,66.67a31.71,31.71,0,0,0,3.47-4.09A33.54,33.54,0,0,0,19.63,18.43ZM61.77,54.65a23,23,0,0,1-3.33,4.23,22,22,0,0,1-4.33,3.38A22.53,22.53,0,0,1,23.2,31.35,22,22,0,0,1,26.58,27a23,23,0,0,1,4.23-3.33,22.54,22.54,0,0,1,31,31Z"/><path d="M58.44,58.88a23,23,0,0,0,3.33-4.23L89.46,82.34A5.4,5.4,0,1,1,81.82,90L54.11,62.26A22,22,0,0,0,58.44,58.88Z"/></svg>