<svg id="Layer_1" data-name="Layer 1" xmlns="http://www.w3.org/2000/svg" viewBox="0 0 500 500"><defs><style>.cls-1{fill:#0070cc;}</style></defs><title>Artboard 4</title><path class="cls-1" d="M293.69,216V159.85c0-.72,0-1.44,0-2.15a9.57,9.57,0,0,0-4-7.64,16.55,16.55,0,0,0-16.47-1.91c-3.68,1.47-5.6,4.26-5.59,8.48.07,26.05.2,52.1,0,78.15-.21,22.69-.07,45.38-.19,68.06,0,.55,0,1.11,0,1.65.06,1.22.25,1.36,1.43,1,2.56-.86,5.1-1.77,7.66-2.63a343.63,343.63,0,0,1,39.61-11c7.87-1.63,15.79-3,23.79-3.89,4.1-.45,8.22-.74,12.33-1a195.42,195.42,0,0,1,19.81-.18c4.78.14,9.55.59,14.31,1.11s9.74,1.06,14.59,1.76c11.41,1.63,22.69,3.85,33.59,7.69,6.73,2.37,13.19,5.32,18.8,9.82,4.19,3.36,7.61,7.32,9.36,12.52a17.31,17.31,0,0,1-2.21,15.9,38.9,38.9,0,0,1-11,10.57,93.37,93.37,0,0,1-19.71,9.6c-3.5,1.3-7.1,2.36-10.63,3.6C406,363.93,393,368.6,379.89,373.23c-7.17,2.53-14.35,5-21.52,7.53-9.6,3.39-19.16,6.92-28.81,10.18-6.15,2.09-12.28,4.25-18.42,6.36-13.9,4.78-27.77,9.68-41.64,14.55a6.46,6.46,0,0,1-4.34.12c-14.54-4.77-29.08-9.55-43.66-14.22-7.13-2.28-14.2-4.78-21.39-6.88-2-.6-2.14-.77-2.15-2.89,0-5.46,0-10.91,0-16.36,0-.33,0-.66,0-1s-.26-.6-.66-.49a13.19,13.19,0,0,0-1.26.4,163.43,163.43,0,0,1-32.17,7.28,166.76,166.76,0,0,1-28.52,1,181.23,181.23,0,0,1-22.62-2.56c-8.36-1.39-16.77-2.54-25.12-4-10-1.74-20.06-3.56-29.74-6.85a56,56,0,0,1-11.6-5.17,24.6,24.6,0,0,1-5.48-4.48,13.34,13.34,0,0,1-3.56-8.82c-.16-7.54,2.6-14,7.28-19.7A50.94,50.94,0,0,1,60.4,314.78a90,90,0,0,1,15.33-6c8.6-2.74,17.12-5.75,25.68-8.64l16.44-5.54,29.56-10,34.9-11.81q7-2.36,13.92-4.73c1.62-.56,1.7-.67,1.72-2.35,0-.61,0-1.21,0-1.82V91.67a19.24,19.24,0,0,1,0-2.15c.09-.85.38-1.06,1.22-.85,1.44.37,2.86.81,4.3,1.19q13.17,3.47,26.35,6.92c6.71,1.77,13.41,3.59,20.11,5.35,7.83,2.07,15.67,4.09,23.49,6.15q9.51,2.5,19,5.2a180.55,180.55,0,0,1,22.38,8,127.71,127.71,0,0,1,30.08,17.71,84.23,84.23,0,0,1,21.72,25.89,83.39,83.39,0,0,1,8.81,28.24,96.92,96.92,0,0,1,.84,12.84c0,3.83-.14,7.69-.42,11.54a145.33,145.33,0,0,1-1.74,14.58c-1.7,9.45-4.44,18.54-9.54,26.76-6.08,9.81-14.58,16.49-25.81,19.56a60.55,60.55,0,0,1-18.31,2.09A92.15,92.15,0,0,1,306.21,279c-3.24-.64-6.48-1.3-9.67-2.17-.64-.17-1.27-.37-1.9-.57a1.18,1.18,0,0,1-.92-1.21c0-.61,0-1.21,0-1.82ZM267.36,357.4c0,3.19,0,6.38,0,9.57,0,1.4.14,1.48,1.41,1.09l.47-.16c5.41-1.86,10.82-3.75,16.24-5.6,8.7-3,17.41-5.88,26.11-8.86,8.18-2.79,16.33-5.65,24.51-8.45q21.7-7.44,43.44-14.83a92.74,92.74,0,0,0,14.21-5.77,17.72,17.72,0,0,0,6-4.58c1.66-2.18,1.3-4.1-1-5.63a13,13,0,0,0-4.11-1.69,36.38,36.38,0,0,0-7.84-1,92.09,92.09,0,0,0-15.48.74,42.83,42.83,0,0,0-8.27,1.49q-23.32,7.82-46.63,15.72c-9,3.06-18,6.2-27,9.3l-20.46,7c-1.58.54-1.61.58-1.62,2.22C267.35,351.12,267.36,354.26,267.36,357.4ZM198,317.29c0-3.59,0-7.17,0-10.75,0-1.47-.09-1.5-1.53-1l-.15.06c-6.86,2.42-13.72,4.82-20.56,7.27-9.8,3.51-19.58,7.07-29.38,10.58q-15.71,5.61-31.44,11.16a17.91,17.91,0,0,0-5.62,3.07,6.11,6.11,0,0,0-1,8.94,13,13,0,0,0,4.48,3.58,25.63,25.63,0,0,0,19.13,1.57c6-1.71,11.94-3.85,17.88-5.87q23.16-7.85,46.36-15.55c1.7-.57,1.8-.67,1.81-2.45C198,324.34,198,320.81,198,317.29Z"/></svg>